<?xml version="1.0" encoding="utf-8"?>
<!-- Generator: Adobe Illustrator 22.0.1, SVG Export Plug-In . SVG Version: 6.00 Build 0)  -->
<svg version="1.1" id="Layer_1" xmlns="http://www.w3.org/2000/svg" xmlns:xlink="http://www.w3.org/1999/xlink" x="0px" y="0px"
	 width="833.3137207px" height="1000px" viewBox="0 0 833.3137207 1000" enable-background="new 0 0 833.3137207 1000"
	 xml:space="preserve">
<g>
	<path fill="#FFC800" d="M33.3372536,0h766.6391602c18.4116821,0,33.3372803,14.9255962,33.3372803,33.3372536v933.3255005
		c0,18.4116211-14.9255981,33.3372192-33.3372803,33.3372192H33.3372536C14.9255962,1000,0,985.0744019,0,966.6627808V33.3372536
		C0,14.9255962,14.9255962,0,33.3372536,0z"/>
	<path fill="#FF7800" d="M62.5,39.1580429h708.3430786c12.4205933,0,22.4894409,10.0688553,22.4894409,22.4894142v876.6757202
		c0,12.4205933-10.0688477,22.4894409-22.4894409,22.4894409H62.5c-12.4205589,0-22.489418-10.0688477-22.489418-22.4894409
		V61.6474571C40.010582,49.2268982,50.0794411,39.1580429,62.5,39.1580429z"/>
	<path fill="#D70000" d="M86.2535248,67.9092178h660.8361206c9.2058105,0,16.6686401,7.4627991,16.6686401,16.6686249v830.8149414
		c0,9.2058716-7.4628296,16.6686401-16.6686401,16.6686401H86.2535248c-9.2058258,0-16.6686249-7.4627686-16.6686249-16.6686401
		V84.5778427C69.5848999,75.3720169,77.047699,67.9092178,86.2535248,67.9092178z"/>
	<path fill="#00005F" d="M105.83255,90.8395996h621.6779785c6.9003296,0,12.4941406,5.5938187,12.4941406,12.4941254v793.3324585
		c0,6.9002686-5.593811,12.4941406-12.4941406,12.4941406H105.83255c-6.9003143,0-12.4941254-5.5938721-12.4941254-12.4941406
		V103.333725C93.3384247,96.4334183,98.9322357,90.8395996,105.83255,90.8395996z"/>
	<path fill="#FFFFFF" d="M265.2869263,776.3405762c-1.8814697-8.0256958-5.497406-22.3718262-7.2612915-28.2514038h-55.2975159
		c-1.8226471,5.8795776-5.3798218,20.255249-7.2612915,28.2514038H145.813736
		c21.0489197-66.4981079,30.6620178-94.4849243,54.1509705-153.4278564h60.7655182
		c23.5183411,58.97229,33.1314697,86.9590454,54.1509705,153.4278564H265.2869263z M209.6660309,714.9870605h41.3923035
		c-5.8795929-20.5785522-16.8156281-54.6801147-20.5785522-64.4402466
		c-3.9981232,9.7601318-14.9929657,43.8910522-20.8137512,64.4696045V714.9870605z"/>
	<path fill="#FFFFFF" d="M369.4437561,776.3405762c-25.7819824,0-40.0105896-14.6989746-40.0105896-41.4216919V622.9127197
		h46.4193115v103.1279297c0,12.9057617,3.5571899,16.2570801,17.2272034,16.2570801h45.0670166l6.8791199,34.0427246
		L369.4437561,776.3405762z"/>
	<rect x="632.7610474" y="622.9127197" fill="#FFFFFF" width="46.3899307" height="153.4277649"/>
	<path fill="#FFFFFF" d="M463.5171204,776.3405762V622.9127197h64.1462708
		c47.0366821,0,80.1387939,19.2263184,80.1387939,75.4938965c0,54.9741821-26.4581299,77.93396-78.0808716,77.93396H463.5171204z
		 M509.9364624,743.1796875h13.0820313c28.4277954,0,39.7460327-12.6999512,39.7460327-44.7730713
		c0-30.1328735-13.7581787-42.3036499-41.3922729-42.3036499H509.907074L509.9364624,743.1796875z"/>
	
		<linearGradient id="SVGID_1_" gradientUnits="userSpaceOnUse" x1="402.552124" y1="530.447998" x2="402.552124" y2="914.0615845" gradientTransform="matrix(1 0 0 -1 -70.8700027 1087.4799805)">
		<stop  offset="0" style="stop-color:#1482AF"/>
		<stop  offset="0.02" style="stop-color:#3898BF"/>
		<stop  offset="0.05" style="stop-color:#6EB9D8"/>
		<stop  offset="0.08" style="stop-color:#96D1EA"/>
		<stop  offset="0.11" style="stop-color:#AEE0F5"/>
		<stop  offset="0.12" style="stop-color:#B7E5F9"/>
		<stop  offset="0.2" style="stop-color:#97DAF6"/>
		<stop  offset="0.33" style="stop-color:#67C9F2"/>
		<stop  offset="0.4" style="stop-color:#55C3F0"/>
		<stop  offset="0.6" style="stop-color:#55C3F0"/>
		<stop  offset="0.67" style="stop-color:#67C9F2"/>
		<stop  offset="0.8" style="stop-color:#97DAF6"/>
		<stop  offset="0.88" style="stop-color:#B7E5F9"/>
		<stop  offset="0.89" style="stop-color:#AEE0F5"/>
		<stop  offset="0.92" style="stop-color:#96D1EA"/>
		<stop  offset="0.95" style="stop-color:#6EB9D8"/>
		<stop  offset="0.98" style="stop-color:#3898BF"/>
		<stop  offset="1" style="stop-color:#1482AF"/>
	</linearGradient>
	<path fill="url(#SVGID_1_)" d="M398.7829285,173.4771729c-28.7511597,0-40.3339539,19.7848206-51.1230164,51.4463806
		l-98.042099,288.6288757c-8.4078064,24.7824097-19.0792694,39.8047485-36.9237976,41.9508667v1.5286865h50.8878021
		c28.7511902,0,40.3339844-19.78479,51.1230164-51.4463806l98.0420532-288.6288757
		c8.4078064-24.7824554,20.049408-39.7754059,37.9233093-41.9508362v-1.5874939L398.7829285,173.4771729z"/>
	
		<linearGradient id="SVGID_2_" gradientUnits="userSpaceOnUse" x1="494.773468" y1="531.2417603" x2="494.773468" y2="914.5614014" gradientTransform="matrix(1 0 0 -1 -70.8700027 1087.4799805)">
		<stop  offset="0" style="stop-color:#1482AF"/>
		<stop  offset="0.02" style="stop-color:#3898BF"/>
		<stop  offset="0.05" style="stop-color:#6EB9D8"/>
		<stop  offset="0.08" style="stop-color:#96D1EA"/>
		<stop  offset="0.11" style="stop-color:#AEE0F5"/>
		<stop  offset="0.12" style="stop-color:#B7E5F9"/>
		<stop  offset="0.2" style="stop-color:#97DAF6"/>
		<stop  offset="0.33" style="stop-color:#67C9F2"/>
		<stop  offset="0.4" style="stop-color:#55C3F0"/>
		<stop  offset="0.6" style="stop-color:#55C3F0"/>
		<stop  offset="0.67" style="stop-color:#67C9F2"/>
		<stop  offset="0.8" style="stop-color:#97DAF6"/>
		<stop  offset="0.88" style="stop-color:#B7E5F9"/>
		<stop  offset="0.89" style="stop-color:#AEE0F5"/>
		<stop  offset="0.92" style="stop-color:#96D1EA"/>
		<stop  offset="0.95" style="stop-color:#6EB9D8"/>
		<stop  offset="0.98" style="stop-color:#3898BF"/>
		<stop  offset="1" style="stop-color:#1482AF"/>
	</linearGradient>
	<path fill="url(#SVGID_2_)" d="M490.974823,172.9186096c-28.7511597,0-40.3339539,19.7848206-51.1229858,51.4463806
		l-97.9833069,288.3348999c-8.4078064,24.7824707-19.0792847,39.8342285-36.9237976,41.9508667v1.5874634H355.83255
		c28.7511597,0,40.3339539-19.78479,51.1229858-51.4463806l97.9833069-288.3348999
		c8.4078369-24.7824554,20.0494385-39.7753906,37.9233398-41.9508514v-1.5874939L490.974823,172.9186096z"/>
	
		<linearGradient id="SVGID_3_" gradientUnits="userSpaceOnUse" x1="321.3550415" y1="529.5661011" x2="321.3550415" y2="913.4736328" gradientTransform="matrix(1 0 0 -1 -70.8700027 1087.4799805)">
		<stop  offset="0" style="stop-color:#1482AF"/>
		<stop  offset="0.02" style="stop-color:#3898BF"/>
		<stop  offset="0.05" style="stop-color:#6EB9D8"/>
		<stop  offset="0.08" style="stop-color:#96D1EA"/>
		<stop  offset="0.11" style="stop-color:#AEE0F5"/>
		<stop  offset="0.12" style="stop-color:#B7E5F9"/>
		<stop  offset="0.2" style="stop-color:#97DAF6"/>
		<stop  offset="0.33" style="stop-color:#67C9F2"/>
		<stop  offset="0.4" style="stop-color:#55C3F0"/>
		<stop  offset="0.6" style="stop-color:#55C3F0"/>
		<stop  offset="0.67" style="stop-color:#67C9F2"/>
		<stop  offset="0.8" style="stop-color:#97DAF6"/>
		<stop  offset="0.88" style="stop-color:#B7E5F9"/>
		<stop  offset="0.89" style="stop-color:#AEE0F5"/>
		<stop  offset="0.92" style="stop-color:#96D1EA"/>
		<stop  offset="0.95" style="stop-color:#6EB9D8"/>
		<stop  offset="0.98" style="stop-color:#3898BF"/>
		<stop  offset="1" style="stop-color:#1482AF"/>
	</linearGradient>
	<path fill="url(#SVGID_3_)" d="M306.6497803,174.0063477c-28.7511597,0-40.3339539,19.7848206-51.1230011,51.4757843
		L142.491745,557.9139404h28.8099823c28.7511749,0,40.3339691-19.78479,51.1230011-51.4463806l98.1302948-288.8934631
		c8.4078064-24.7824554,20.049408-39.7753906,37.9233093-41.9508362v-1.5874939L306.6497803,174.0063477z"/>
	
		<linearGradient id="SVGID_4_" gradientUnits="userSpaceOnUse" x1="560.1217651" y1="737.0071411" x2="671.9989014" y2="783.3457642" gradientTransform="matrix(1 0 0 -1 -70.8700027 1087.4799805)">
		<stop  offset="0.2" style="stop-color:#55C3F0"/>
		<stop  offset="0.32" style="stop-color:#67C9F2"/>
		<stop  offset="0.55" style="stop-color:#97DAF6"/>
		<stop  offset="0.69" style="stop-color:#B7E5F9"/>
		<stop  offset="0.73" style="stop-color:#AEE0F5"/>
		<stop  offset="0.79" style="stop-color:#96D1EA"/>
		<stop  offset="0.86" style="stop-color:#6EB9D8"/>
		<stop  offset="0.95" style="stop-color:#3898BF"/>
		<stop  offset="1" style="stop-color:#1482AF"/>
	</linearGradient>
	<path fill="url(#SVGID_4_)" d="M599.6589966,307.8257141c-10.6714478-21.7544556-22.1660767-24.5178528-42.244812-24.5178528
		h-51.1524353l-20.1963501,59.4719849h100.3057556c14.4343872,0,26.1053467,1.8814697,34.2192383,12.6705017h1.7932129
		C622.383606,355.4503479,602.2166138,313.0291443,599.6589966,307.8257141z"/>
	
		<linearGradient id="SVGID_5_" gradientUnits="userSpaceOnUse" x1="535.7397461" y1="639.524353" x2="702.6711426" y2="708.6723633" gradientTransform="matrix(1 0 0 -1 -70.8700027 1087.4799805)">
		<stop  offset="0.3" style="stop-color:#55C3F0"/>
		<stop  offset="0.41" style="stop-color:#67C9F2"/>
		<stop  offset="0.63" style="stop-color:#97DAF6"/>
		<stop  offset="0.76" style="stop-color:#B7E5F9"/>
		<stop  offset="0.79" style="stop-color:#AEE0F5"/>
		<stop  offset="0.83" style="stop-color:#96D1EA"/>
		<stop  offset="0.89" style="stop-color:#6EB9D8"/>
		<stop  offset="0.96" style="stop-color:#3898BF"/>
		<stop  offset="1" style="stop-color:#1482AF"/>
	</linearGradient>
	<path fill="url(#SVGID_5_)" d="M636.0536499,393.6382751c-10.0247192-21.0195007-22.0778809-24.4590454-42.274231-24.4590454
		H477.0696411l-20.1963806,59.4719849H621.913269c14.8458862,0,25.8407593,2.1754761,34.1603394,13.0820923h1.7932739
		C657.8668823,441.7333069,638.5818481,398.9299011,636.0536499,393.6382751z"/>
	
		<linearGradient id="SVGID_6_" gradientUnits="userSpaceOnUse" x1="511.0057678" y1="541.609375" x2="732.5828857" y2="633.3917847" gradientTransform="matrix(1 0 0 -1 -70.8700027 1087.4799805)">
		<stop  offset="0" style="stop-color:#73CDF3"/>
		<stop  offset="0.12" style="stop-color:#62C7F1"/>
		<stop  offset="0.24" style="stop-color:#58C4F0"/>
		<stop  offset="0.4" style="stop-color:#55C3F0"/>
		<stop  offset="0.5" style="stop-color:#67C9F2"/>
		<stop  offset="0.69" style="stop-color:#97DAF6"/>
		<stop  offset="0.81" style="stop-color:#B7E5F9"/>
		<stop  offset="0.83" style="stop-color:#AEE0F5"/>
		<stop  offset="0.87" style="stop-color:#96D1EA"/>
		<stop  offset="0.92" style="stop-color:#6EB9D8"/>
		<stop  offset="0.97" style="stop-color:#3898BF"/>
		<stop  offset="1" style="stop-color:#1482AF"/>
	</linearGradient>
	<path fill="url(#SVGID_6_)" d="M673.3889771,482.4788208c-10.4656982-23.5183411-23.5183716-26.9284973-43.6265259-26.9284973
		h-182.002594l-16.7274475,49.2709045c-1.2150879,3.5669556-2.440033,6.9672852-3.6747437,10.2011108h230.3621216
		c13.4348755,0,24.4884644,2.3812256,33.013916,13.4642334h1.7932739
		C692.5269775,528.4865723,674.5942993,485.1246338,673.3889771,482.4788208z"/>
</g>
</svg>
