<?xml version="1.0" encoding="UTF-8"?>
<svg xmlns="http://www.w3.org/2000/svg" viewBox="0 0 480 480" width="480" height="480">
<path d="M0.13 0.13C160.04 0.13 319.96 0.13 479.88 0.13C479.88 160.04 479.88 319.96 479.88 479.88C319.96 479.88 160.04 479.88 0.13 479.88C0.13 319.96 0.13 160.04 0.13 0.13ZM55.75 199.23C54.9 202.01 55.35 205.35 55.34 208.25C55.34 213.75 55.35 219.25 55.35 224.75C55.35 236.92 55.34 249.08 55.35 261.25C55.35 267.26 54.45 274.15 55.75 280C61.6 280 67.46 280 73.32 280C73.32 253.08 73.32 226.17 73.32 199.25C69.84 198.29 59.18 198.24 55.75 199.23ZM202.95 199.02C202.95 226.01 202.95 253 202.95 279.99C208.96 279.99 214.97 279.99 220.98 279.99C220.98 253.06 220.98 226.13 220.98 199.2C216.01 198.09 208.04 198.35 202.95 199.02ZM424.25 199.2C420.77 198.23 410.11 198.27 406.62 199.25C406.62 204.86 406.62 210.47 406.62 216.09C402.63 216.93 397.91 215.78 393.75 216.06C386.91 216.51 379.14 220.17 374.48 225.24C362.24 238.53 361.96 263.65 377.43 274.8C387.82 282.27 402.45 282.25 414.63 280.3C417.82 279.79 421.3 279.86 424.25 278.46C425.55 274.5 424.67 260.76 424.67 255.75C424.67 242.92 424.65 230.08 424.67 217.25C424.68 212.4 425.61 203.54 424.25 199.2ZM129.75 218.42C125.92 216.36 121.06 215.99 116.75 216C106.59 216 96.43 220.13 90.39 228.63C79.49 243.98 81.71 268.21 99.34 277.43C103.83 279.78 108.67 280.93 113.75 281.09C119.4 281.27 125.54 280.82 130.75 278.52C131.47 275.31 129.58 271.34 128.75 268.19C126.68 267.93 125.23 268.58 123.23 268.85C118.13 269.54 112.59 269.09 108.45 265.79C98.16 257.58 100.21 236.67 111.36 230.12C114.66 228.19 118.76 227.61 122.52 228.25C124.03 228.51 125.2 228.97 126.75 228.93C127.75 225.43 128.75 221.93 129.75 218.42ZM192.25 249.36C193.51 245.83 192.12 240.19 191.19 236.63C189.5 230.2 186.29 223.97 180.48 220.28C165.9 211 145.2 217.18 138.37 233.13C136.66 237.15 135.9 241.42 135.53 245.75C135.19 249.62 135.4 253.79 136.22 257.61C139.91 274.83 155.7 281.2 171.75 281.17C176.8 281.15 184.27 280.81 188.75 278.38C189.34 275.36 187.98 270.9 186.75 268.09C184.49 267.97 182.49 268.77 180.25 268.99C171.77 269.83 155.97 269.71 154.65 258.25C157.18 256.39 160.99 256.36 164 255.74C170.83 254.32 177.67 252.85 184.45 251.24C186.98 250.64 189.98 250.58 192.25 249.36ZM286.11 277.75C287.24 273.83 286.42 267.47 286.42 263.25C286.4 256.08 286.42 248.92 286.41 241.75C286.4 236.16 286.53 230.56 283.67 225.58C277.15 214.21 258.62 215.45 247.74 216.88C243.57 217.43 238.89 218.18 235.18 220.25C235.87 223.8 236.56 227.35 237.25 230.9C239.53 231.08 241.76 230.26 244 229.74C249.76 228.38 256.34 227.06 262.18 228.62C266.92 229.88 269.59 233.9 267.75 238.75C264.69 239.18 261.54 238.85 258.47 239.25C246.7 240.78 231.54 245.43 231.1 259.75C231.02 262.19 231.47 264.72 232.25 267.03C237.41 282.23 261.53 282.48 274.24 280.4C278.04 279.77 282.81 279.92 286.11 277.75ZM355.75 280.01C356.4 275.88 355.97 271.43 355.97 267.25C355.97 258.92 355.95 250.58 355.97 242.25C355.98 235.67 356.12 228.55 351.45 223.31C347.79 219.22 342.59 217.79 337.46 216.76C325.8 214.43 310.49 216.31 299.01 219.25C299.01 239.51 299.01 259.76 299.01 280.01C305.03 280.01 311.05 280.01 317.07 280.01C317.07 263.07 317.07 246.14 317.07 229.2C322.11 226.96 334.1 226.32 336.88 232.35C338.9 236.72 337.99 242.57 337.99 247.25C337.98 254.08 337.99 260.92 337.99 267.75C337.99 271.81 337.72 275.98 338.2 280.01C344.05 280.01 349.9 280.01 355.75 280.01ZM174.75 240.35C167.76 241.82 160.77 243.28 153.78 244.75C153.03 242.96 153.63 241.13 153.9 239.25C154.62 234.29 157.51 229.2 162.84 228.19C169.53 226.92 176.8 233.61 174.75 240.35ZM406.55 229.25C406.55 242.41 406.55 255.56 406.55 268.72C403.95 269.49 401.44 269.44 398.75 269.13C387.67 267.84 384.01 258.22 384 248.25C383.99 243.87 384.73 239.13 387.12 235.36C390.42 230.15 395.67 227.87 401.75 228.05C403.58 228.1 405.05 228.15 406.55 229.25ZM268.34 250.25C268.34 256.42 268.34 262.58 268.34 268.75C265.76 269.27 263.03 269.51 260.4 269.27C254.79 268.76 249.85 265.96 249.93 259.75C249.96 257.23 250.78 255.15 252.73 253.48C256.62 250.15 263.49 249.52 268.34 250.25Z" fill="#d01c2e" fill-rule="evenodd" stroke="#d01c2e" stroke-width="0.25" stroke-linejoin="round"/>
<path d="M55.75 199.23C59.18 198.24 69.84 198.29 73.32 199.25C73.32 226.17 73.32 253.08 73.32 280C67.46 280 61.6 280 55.75 280C54.45 274.15 55.35 267.26 55.35 261.25C55.34 249.08 55.35 236.92 55.35 224.75C55.35 219.25 55.34 213.75 55.34 208.25C55.35 205.35 54.9 202.01 55.75 199.23ZM202.95 199.02C208.04 198.35 216.01 198.09 220.98 199.2C220.98 226.13 220.98 253.06 220.98 279.99C214.97 279.99 208.96 279.99 202.95 279.99C202.95 253 202.95 226.01 202.95 199.02ZM424.25 199.2C425.61 203.54 424.68 212.4 424.67 217.25C424.65 230.08 424.67 242.92 424.67 255.75C424.67 260.76 425.55 274.5 424.25 278.46C421.3 279.86 417.82 279.79 414.63 280.3C402.45 282.25 387.82 282.27 377.43 274.8C361.96 263.65 362.24 238.53 374.48 225.24C379.14 220.17 386.91 216.51 393.75 216.06C397.91 215.78 402.63 216.93 406.62 216.09C406.62 210.47 406.62 204.86 406.62 199.25C410.11 198.27 420.77 198.23 424.25 199.2ZM129.75 218.42C128.75 221.93 127.75 225.43 126.75 228.93C125.2 228.97 124.03 228.51 122.52 228.25C118.76 227.61 114.66 228.19 111.36 230.12C100.21 236.67 98.16 257.58 108.45 265.79C112.59 269.09 118.13 269.54 123.23 268.85C125.23 268.58 126.68 267.93 128.75 268.19C129.58 271.34 131.47 275.31 130.75 278.52C125.54 280.82 119.4 281.27 113.75 281.09C108.67 280.93 103.83 279.78 99.34 277.43C81.71 268.21 79.49 243.98 90.39 228.63C96.43 220.13 106.59 216 116.75 216C121.06 215.99 125.92 216.36 129.75 218.42ZM192.25 249.36C189.98 250.58 186.98 250.64 184.45 251.24C177.67 252.85 170.83 254.32 164 255.74C160.99 256.36 157.18 256.39 154.65 258.25C155.97 269.71 171.77 269.83 180.25 268.99C182.49 268.77 184.49 267.97 186.75 268.09C187.98 270.9 189.34 275.36 188.75 278.38C184.27 280.81 176.8 281.15 171.75 281.17C155.7 281.2 139.91 274.83 136.22 257.61C135.4 253.79 135.19 249.62 135.53 245.75C135.9 241.42 136.66 237.15 138.37 233.13C145.2 217.18 165.9 211 180.48 220.28C186.29 223.97 189.5 230.2 191.19 236.63C192.12 240.19 193.51 245.83 192.25 249.36ZM286.11 277.75C282.81 279.92 278.04 279.77 274.24 280.4C261.53 282.48 237.41 282.23 232.25 267.03C231.47 264.72 231.02 262.19 231.1 259.75C231.54 245.43 246.7 240.78 258.47 239.25C261.54 238.85 264.69 239.18 267.75 238.75C269.59 233.9 266.92 229.88 262.18 228.62C256.34 227.06 249.76 228.38 244 229.74C241.76 230.26 239.53 231.08 237.25 230.9C236.56 227.35 235.87 223.8 235.18 220.25C238.89 218.18 243.57 217.43 247.74 216.88C258.62 215.45 277.15 214.21 283.67 225.58C286.53 230.56 286.4 236.16 286.41 241.75C286.42 248.92 286.4 256.08 286.42 263.25C286.42 267.47 287.24 273.83 286.11 277.75ZM355.75 280.01C349.9 280.01 344.05 280.01 338.2 280.01C337.72 275.98 337.99 271.81 337.99 267.75C337.99 260.92 337.98 254.08 337.99 247.25C337.99 242.57 338.9 236.72 336.88 232.35C334.1 226.32 322.11 226.96 317.07 229.2C317.07 246.14 317.07 263.07 317.07 280.01C311.05 280.01 305.03 280.01 299.01 280.01C299.01 259.76 299.01 239.51 299.01 219.25C310.49 216.31 325.8 214.43 337.46 216.76C342.59 217.79 347.79 219.22 351.45 223.31C356.12 228.55 355.98 235.67 355.97 242.25C355.95 250.58 355.97 258.92 355.97 267.25C355.97 271.43 356.4 275.88 355.75 280.01ZM174.75 240.35C176.8 233.61 169.53 226.92 162.84 228.19C157.51 229.2 154.62 234.29 153.9 239.25C153.63 241.13 153.03 242.96 153.78 244.75C160.77 243.28 167.76 241.82 174.75 240.35ZM406.55 229.25C405.05 228.15 403.58 228.1 401.75 228.05C395.67 227.87 390.42 230.15 387.12 235.36C384.73 239.13 383.99 243.87 384 248.25C384.01 258.22 387.67 267.84 398.75 269.13C401.44 269.44 403.95 269.49 406.55 268.72C406.55 255.56 406.55 242.41 406.55 229.25ZM268.34 250.25C263.49 249.52 256.62 250.15 252.73 253.48C250.78 255.15 249.96 257.23 249.93 259.75C249.85 265.96 254.79 268.76 260.4 269.27C263.03 269.51 265.76 269.27 268.34 268.75C268.34 262.58 268.34 256.42 268.34 250.25Z" fill="#fefefd" fill-rule="evenodd" stroke="#fefefd" stroke-width="0.25" stroke-linejoin="round"/>
</svg>