<?xml version="1.0" encoding="UTF-8"?>
<svg xmlns="http://www.w3.org/2000/svg" viewBox="0 0 837 594" width="837" height="594">
<path d="M0.25 0.25C279.08 0.25 557.92 0.25 836.75 0.25C836.75 198.08 836.75 395.92 836.75 593.75C557.92 593.75 279.08 593.75 0.25 593.75C0.25 395.92 0.25 198.08 0.25 0.25ZM766.6 142.5C766.53 136.48 762.71 129.99 759.68 124.8C752.26 112.03 741.41 101.99 728.31 95.22C721.53 91.71 714.22 89.29 706.8 87.6C667.95 78.73 613.47 91.08 603.14 135.54C601.49 142.67 600.75 150.19 601.29 157.5C601.69 162.84 602.72 168.07 604.41 173.14C614.57 203.75 651.01 213.75 678.4 222.19C684.48 224.07 690.6 225.8 696.65 227.74C714.21 233.37 739.19 241.74 744.56 261.83C745.76 266.29 746.06 270.9 745.79 275.5C745.49 280.52 744.53 285.63 742.83 290.36C731.05 323.11 684.45 328.43 655.77 318.66C639.61 313.17 626.17 301.85 616.6 287.88C613.57 283.46 611.19 278.69 608.5 274.07C602.08 277.88 595.66 281.69 589.24 285.5C591.7 293.62 600.67 304.69 606.35 311.17C631.07 339.38 669.3 349.37 705.65 342.3C738.43 335.92 765.2 314.27 768.78 279.49C769.46 272.88 769.16 266.04 768.02 259.5C760.45 216.14 709.56 206.79 674.3 196.27C653.19 189.97 625.59 180.67 624.58 154.5C624.4 149.85 624.87 145.03 626.05 140.53C635.1 105.97 681.75 100.08 710.27 111.27C722.18 115.94 732.56 124.29 739.4 135.12C742.32 139.75 743.93 144.92 746.5 149.68C753.2 147.29 759.9 144.89 766.6 142.5ZM101.43 88.1C93.26 88.1 85.1 88.1 76.94 88.1C76.94 172.65 76.94 257.21 76.94 341.76C84.67 341.76 92.41 341.76 100.15 341.76C100.15 273.23 100.15 204.69 100.15 136.16C127.93 189.68 155.72 243.21 183.5 296.73C188.83 296.73 194.17 296.73 199.5 296.73C227.58 243.12 255.66 189.51 283.73 135.91C283.73 204.52 283.73 273.14 283.73 341.76C291.48 341.76 299.22 341.76 306.96 341.76C306.96 257.2 306.96 172.65 306.96 88.1C298.93 88.1 290.89 88.1 282.86 88.1C252.74 146.21 222.62 204.32 192.5 262.44C162.14 204.32 131.78 146.21 101.43 88.1ZM456.66 206.5C461.2 202.9 466.18 199.84 470.78 196.3C481.6 187.97 491.77 177.46 497.36 164.84C512.55 130.57 489.53 94.14 453.45 89.31C423.86 85.34 392.15 105.42 389.05 136.5C388.39 143.1 388.7 149.84 390.29 156.29C393.32 168.49 400.82 179.23 408.78 188.73C412.39 193.05 418.38 197.7 420.79 202.5C403.01 213.07 384.1 224.45 373.21 242.7C369.4 249.1 366.97 256.17 365.86 263.5C359.8 303.21 390.18 335.88 428.5 340.84C453.37 344.05 476.12 338.26 494.69 321.17C501.29 315.1 505.87 307.67 511.5 300.82C525.5 315.55 539.5 330.29 553.5 345.02C559.13 340.18 564.75 335.34 570.38 330.5C554.94 313.83 539.5 297.17 524.06 280.5C535.31 262.17 546.55 243.83 557.8 225.5C551.7 221.6 545.6 217.7 539.5 213.8C529.17 230.26 518.83 246.71 508.5 263.17C491.22 244.28 473.94 225.39 456.66 206.5ZM441.5 190.95C431.39 180.62 415.02 163.81 412.25 149.39C407.9 126.8 425.72 107.31 448.47 109.29C471.7 111.3 484.45 132.27 477.78 154.35C474.24 166.07 465.16 174.93 455.65 182.11C451.3 185.4 446.59 189.01 441.5 190.95ZM435.5 218.43C455.93 240.45 476.36 262.48 496.79 284.5C487.79 298.4 477.65 312.23 461.25 317.69C456.54 319.26 451.71 320 446.78 320.44C441.71 320.88 436.55 320.61 431.52 319.85C404.6 315.75 382.89 290.94 389.54 263.09C390.55 258.85 392.24 254.76 394.56 251.06C403.79 236.37 420.51 226.35 435.5 218.43ZM346.79 412.42C340.82 413.36 335.28 415.46 330.12 418.61C298.78 437.77 305.6 487.12 340.44 498.14C346.76 500.13 353.89 500.58 360.45 499.72C371.86 498.22 382.58 492.22 389.43 482.9C403.48 463.79 400.47 433.95 380.52 419.99C376.42 417.12 371.86 414.78 367.01 413.5C360.49 411.77 353.47 411.37 346.79 412.42ZM457.71 412.37C451.29 413.33 445.13 415.64 439.72 419.23C409.46 439.34 416.8 487.69 451.39 498.22C457.75 500.15 464.82 500.58 471.4 499.68C509.42 494.43 522.43 443.68 491.9 420.58C487.72 417.41 482.88 415 477.82 413.59C471.35 411.78 464.35 411.37 457.71 412.37ZM289.26 413.25C270.79 413.25 252.31 413.25 233.84 413.25C233.84 441.69 233.84 470.14 233.84 498.59C239.13 498.59 244.42 498.59 249.7 498.59C249.7 487.17 249.7 475.75 249.7 464.32C261.84 464.32 273.97 464.32 286.1 464.32C286.1 459.45 286.1 454.57 286.1 449.69C273.98 449.69 261.86 449.69 249.73 449.69C249.73 442.48 249.73 435.28 249.73 428.07C262.91 428.07 276.08 428.07 289.26 428.07C289.26 423.13 289.26 418.19 289.26 413.25ZM532.22 498.5C538.6 498.97 545.1 498.67 551.5 498.67C563.07 498.68 574.56 498.8 585.25 493.76C612.88 480.72 617.95 441.94 593.4 423.07C581.09 413.61 566.36 413.25 551.5 413.24C545 413.23 538.32 412.82 531.88 413.5C530.49 419.73 531.43 427.07 531.43 433.5C531.43 446.83 531.43 460.17 531.43 473.5C531.43 478.83 531.43 484.17 531.42 489.5C531.42 491.86 530.88 494.97 531.48 497.25C531.6 497.72 532.04 498.05 532.22 498.5ZM347.63 427.24C351.45 426.39 355.64 426.33 359.49 427.03C388.1 432.19 388.81 478.91 360.41 484.76C356.33 485.6 351.81 485.58 347.74 484.66C320.21 478.41 319.98 433.43 347.63 427.24ZM457.79 427.38C461.29 426.51 464.93 426.43 468.5 426.84C498.26 430.28 500.2 478.44 471.33 484.72C467.53 485.55 463.34 485.56 459.52 484.9C431.17 479.98 430 434.26 457.79 427.38ZM547.26 428.38C557.17 427.42 568.82 427.02 578 431.51C594.95 439.81 597.57 465.56 582.82 477.35C573.15 485.08 558.92 484.73 547.26 483.55C547.26 465.16 547.26 446.77 547.26 428.38ZM77.04 449.7C77.04 454.57 77.04 459.44 77.04 464.31C112.97 464.31 148.9 464.31 184.83 464.31C184.83 459.44 184.83 454.57 184.83 449.7C148.9 449.7 112.97 449.7 77.04 449.7ZM657.34 449.71C657.34 454.57 657.34 459.44 657.34 464.31C693.26 464.31 729.17 464.31 765.09 464.31C765.09 459.44 765.09 454.57 765.09 449.71C729.17 449.71 693.26 449.71 657.34 449.71Z" fill="#010101" fill-rule="evenodd" stroke="#010101" stroke-width="0.25" stroke-linejoin="round"/>
<path d="M766.6 142.5C759.9 144.89 753.2 147.29 746.5 149.68C743.93 144.92 742.32 139.75 739.4 135.12C732.56 124.29 722.18 115.94 710.27 111.27C681.75 100.08 635.1 105.97 626.05 140.53C624.87 145.03 624.4 149.85 624.58 154.5C625.59 180.67 653.19 189.97 674.3 196.27C709.56 206.79 760.45 216.14 768.02 259.5C769.16 266.04 769.46 272.88 768.78 279.49C765.2 314.27 738.43 335.92 705.65 342.3C669.3 349.37 631.07 339.38 606.35 311.17C600.67 304.69 591.7 293.62 589.24 285.5C595.66 281.69 602.08 277.88 608.5 274.07C611.19 278.69 613.57 283.46 616.6 287.88C626.17 301.85 639.61 313.17 655.77 318.66C684.45 328.43 731.05 323.11 742.83 290.36C744.53 285.63 745.49 280.52 745.79 275.5C746.06 270.9 745.76 266.29 744.56 261.83C739.19 241.74 714.21 233.37 696.65 227.74C690.6 225.8 684.48 224.07 678.4 222.19C651.01 213.75 614.57 203.75 604.41 173.14C602.72 168.07 601.69 162.84 601.29 157.5C600.75 150.19 601.49 142.67 603.14 135.54C613.47 91.08 667.95 78.73 706.8 87.6C714.22 89.29 721.53 91.71 728.31 95.22C741.41 101.99 752.26 112.03 759.68 124.8C762.71 129.99 766.53 136.48 766.6 142.5ZM101.43 88.1C131.78 146.21 162.14 204.32 192.5 262.44C222.62 204.32 252.74 146.21 282.86 88.1C290.89 88.1 298.93 88.1 306.96 88.1C306.96 172.65 306.96 257.2 306.96 341.76C299.22 341.76 291.48 341.76 283.73 341.76C283.73 273.14 283.73 204.52 283.73 135.91C255.66 189.51 227.58 243.12 199.5 296.73C194.17 296.73 188.83 296.73 183.5 296.73C155.72 243.21 127.93 189.68 100.15 136.16C100.15 204.69 100.15 273.23 100.15 341.76C92.41 341.76 84.67 341.76 76.94 341.76C76.94 257.21 76.94 172.65 76.94 88.1C85.1 88.1 93.26 88.1 101.43 88.1ZM456.66 206.5C473.94 225.39 491.22 244.28 508.5 263.17C518.83 246.71 529.17 230.26 539.5 213.8C545.6 217.7 551.7 221.6 557.8 225.5C546.55 243.83 535.31 262.17 524.06 280.5C539.5 297.17 554.94 313.83 570.38 330.5C564.75 335.34 559.13 340.18 553.5 345.02C539.5 330.29 525.5 315.55 511.5 300.82C505.87 307.67 501.29 315.1 494.69 321.17C476.12 338.26 453.37 344.05 428.5 340.84C390.18 335.88 359.8 303.21 365.86 263.5C366.97 256.17 369.4 249.1 373.21 242.7C384.1 224.45 403.01 213.07 420.79 202.5C418.38 197.7 412.39 193.05 408.78 188.73C400.82 179.23 393.32 168.49 390.29 156.29C388.7 149.84 388.39 143.1 389.05 136.5C392.15 105.42 423.86 85.34 453.45 89.31C489.53 94.14 512.55 130.57 497.36 164.84C491.77 177.46 481.6 187.97 470.78 196.3C466.18 199.84 461.2 202.9 456.66 206.5ZM441.5 190.95C446.59 189.01 451.3 185.4 455.65 182.11C465.16 174.93 474.24 166.07 477.78 154.35C484.45 132.27 471.7 111.3 448.47 109.29C425.72 107.31 407.9 126.8 412.25 149.39C415.02 163.81 431.39 180.62 441.5 190.95ZM435.5 218.43C420.51 226.35 403.79 236.37 394.56 251.06C392.24 254.76 390.55 258.85 389.54 263.09C382.89 290.94 404.6 315.75 431.52 319.85C436.55 320.61 441.71 320.88 446.78 320.44C451.71 320 456.54 319.26 461.25 317.69C477.65 312.23 487.79 298.4 496.79 284.5C476.36 262.48 455.93 240.45 435.5 218.43ZM346.79 412.42C353.47 411.37 360.49 411.77 367.01 413.5C371.86 414.78 376.42 417.12 380.52 419.99C400.47 433.95 403.48 463.79 389.43 482.9C382.58 492.22 371.86 498.22 360.45 499.72C353.89 500.58 346.76 500.13 340.44 498.14C305.6 487.12 298.78 437.77 330.12 418.61C335.28 415.46 340.82 413.36 346.79 412.42ZM457.71 412.37C464.35 411.37 471.35 411.78 477.82 413.59C482.88 415 487.72 417.41 491.9 420.58C522.43 443.68 509.42 494.43 471.4 499.68C464.82 500.58 457.75 500.15 451.39 498.22C416.8 487.69 409.46 439.34 439.72 419.23C445.13 415.64 451.29 413.33 457.71 412.37ZM289.26 413.25C289.26 418.19 289.26 423.13 289.26 428.07C276.08 428.07 262.91 428.07 249.73 428.07C249.73 435.28 249.73 442.48 249.73 449.69C261.86 449.69 273.98 449.69 286.1 449.69C286.1 454.57 286.1 459.45 286.1 464.32C273.97 464.32 261.84 464.32 249.7 464.32C249.7 475.75 249.7 487.17 249.7 498.59C244.42 498.59 239.13 498.59 233.84 498.59C233.84 470.14 233.84 441.69 233.84 413.25C252.31 413.25 270.79 413.25 289.26 413.25ZM532.22 498.5C532.04 498.05 531.6 497.72 531.48 497.25C530.88 494.97 531.42 491.86 531.42 489.5C531.43 484.17 531.43 478.83 531.43 473.5C531.43 460.17 531.43 446.83 531.43 433.5C531.43 427.07 530.49 419.73 531.88 413.5C538.32 412.82 545 413.23 551.5 413.24C566.36 413.25 581.09 413.61 593.4 423.07C617.95 441.94 612.88 480.72 585.25 493.76C574.56 498.8 563.07 498.68 551.5 498.67C545.1 498.67 538.6 498.97 532.22 498.5ZM347.63 427.24C319.98 433.43 320.21 478.41 347.74 484.66C351.81 485.58 356.33 485.6 360.41 484.76C388.81 478.91 388.1 432.19 359.49 427.03C355.64 426.33 351.45 426.39 347.63 427.24ZM457.79 427.38C430 434.26 431.17 479.98 459.52 484.9C463.34 485.56 467.53 485.55 471.33 484.72C500.2 478.44 498.26 430.28 468.5 426.84C464.93 426.43 461.29 426.51 457.79 427.38ZM547.26 428.38C547.26 446.77 547.26 465.16 547.26 483.55C558.92 484.73 573.15 485.08 582.82 477.35C597.57 465.56 594.95 439.81 578 431.51C568.82 427.02 557.17 427.42 547.26 428.38ZM77.04 449.7C112.97 449.7 148.9 449.7 184.83 449.7C184.83 454.57 184.83 459.44 184.83 464.31C148.9 464.31 112.97 464.31 77.04 464.31C77.04 459.44 77.04 454.57 77.04 449.7ZM657.34 449.71C693.26 449.71 729.17 449.71 765.09 449.71C765.09 454.57 765.09 459.44 765.09 464.31C729.17 464.31 693.26 464.31 657.34 464.31C657.34 459.44 657.34 454.57 657.34 449.71Z" fill="#fefefe" fill-rule="evenodd" stroke="#fefefe" stroke-width="0.25" stroke-linejoin="round"/>
</svg>