<?xml version="1.0" encoding="utf-8"?>
<!-- Generator: Adobe Illustrator 27.2.0, SVG Export Plug-In . SVG Version: 6.00 Build 0)  -->
<svg version="1.1" id="Layer_1" xmlns="http://www.w3.org/2000/svg" xmlns:xlink="http://www.w3.org/1999/xlink" x="0px" y="0px"
	 viewBox="0 0 221.9 221.9" style="enable-background:new 0 0 221.9 221.9;" xml:space="preserve">
<style type="text/css">
	.st0{opacity:0.8;}
	.st1{fill:#FFFFFF;}
	.st2{fill:#CCCCCC;}
	.st3{opacity:0.8;fill:#F06C00;}
	.st4{fill:#7DC242;}
	.st5{opacity:0.8;fill:#00563F;}
	.st6{fill:#FFC20E;}
	.st7{fill-rule:evenodd;clip-rule:evenodd;fill:#28539C;}
	.st8{fill-rule:evenodd;clip-rule:evenodd;fill:#CC2131;}
	.st9{opacity:0.8;fill:#00005F;}
	.st10{fill:#FFC800;}
	.st11{fill:#FF7800;}
	.st12{fill:#D70000;}
	.st13{fill:#00005F;}
	.st14{fill:url(#SVGID_1_);}
	.st15{fill:url(#SVGID_00000088830329349334283660000000752783174814071427_);}
	.st16{fill:url(#SVGID_00000133515893848616276360000000117752423846863523_);}
	.st17{fill:url(#SVGID_00000020362885353957315030000004725110702941303470_);}
	.st18{fill:url(#SVGID_00000075879765275667720260000014176752344953846959_);}
	.st19{fill:url(#SVGID_00000005245287057355716450000006758876431163228804_);}
	.st20{fill-rule:evenodd;clip-rule:evenodd;fill:#FFFFFF;}
	.st21{fill:#333333;}
	.st22{fill:#F06C00;}
	.st23{fill:#00563F;}
	.st24{fill:url(#SVGID_00000001632518028860763940000007024484845234140323_);}
	.st25{fill:url(#SVGID_00000058561435568583113770000001260179411318178979_);}
	.st26{fill:url(#SVGID_00000067935546541552936580000006931152014821186478_);}
	.st27{fill:url(#SVGID_00000157309022707314978480000005321432889774171045_);}
	.st28{fill:url(#SVGID_00000177455640544416088300000005826124836781679244_);}
	.st29{fill:url(#SVGID_00000151529889704654398060000011260529061796727730_);}
</style>
<path class="st23" d="M188.1,221.9H33.9C15.2,221.9,0,206.8,0,188.1V33.9C0,15.2,15.2,0,33.9,0h154.2c18.7,0,33.9,15.2,33.9,33.9
	v154.2C221.9,206.8,206.8,221.9,188.1,221.9z"/>
<g>
	<path class="st1" d="M89.8,143.6c1.4,0,2.5-0.7,2.5-2.1c0-1.1-0.7-1.7-2.1-1.9c-1.1-0.3-1.4-0.4-1.4-0.8c0-0.3,0.3-0.6,0.8-0.6
		c0.6,0,1.1,0.3,1.7,0.7l0.7-1.1c-0.7-0.6-1.5-0.8-2.5-0.8c-1.4,0-2.3,0.8-2.3,1.9c0,1.4,0.8,1.7,2.2,2.1c1.1,0.3,1.4,0.4,1.4,0.8
		c0,0.4-0.4,0.7-1,0.7c-0.7,0-1.4-0.3-1.9-0.8l-0.8,1C87.7,143.3,88.8,143.6,89.8,143.6 M93.2,137.9h1.5v-1.2h-1.5V137.9z
		 M93.2,143.4h1.4v-5.1h-1.4V143.4z M96,143.4h1.4v-2.9c0-0.7,0.4-1,1-1s0.8,0.4,0.8,1v2.9h1.4v-3.3c0-1.1-0.7-1.9-1.7-1.9
		c-0.7,0-1.1,0.4-1.5,0.8v-0.7H96V143.4L96,143.4z M104.1,143.6c1,0,1.5-0.4,2.1-1l-0.8-0.8c-0.4,0.3-0.7,0.6-1.1,0.6
		c-0.8,0-1.2-0.7-1.2-1.4s0.6-1.4,1.2-1.4c0.6,0,0.8,0.3,1.1,0.6l0.8-1c-0.4-0.6-1.1-0.8-2.1-0.8c-1.5,0-2.6,1.2-2.6,2.6
		C101.5,142.5,102.6,143.6,104.1,143.6 M109.3,143.6c1,0,1.7-0.4,2.1-1l-0.8-0.7c-0.4,0.4-0.7,0.6-1.2,0.6c-0.7,0-1.1-0.3-1.2-1h3.6
		c0-0.1,0-0.3,0-0.4c0-1.4-0.8-2.8-2.5-2.8c-1.5,0-2.5,1.2-2.5,2.6C106.7,142.6,107.8,143.6,109.3,143.6 M108.1,140.5
		c0.1-0.7,0.6-1.1,1.1-1.1c0.6,0,1,0.4,1.1,1.1H108.1z M115.4,143.4h1.4v-6.6h-1l-1.8,0.6l0.3,1.2l1.1-0.3V143.4z M120.6,143.6
		c1.5,0,2.6-0.7,2.6-1.9c0-0.8-0.4-1.2-1.1-1.5c0.6-0.3,0.8-0.7,0.8-1.4c0-1-1-1.8-2.3-1.8s-2.3,0.8-2.3,1.8c0,0.7,0.3,1.1,0.8,1.4
		c-0.7,0.3-1.1,0.8-1.1,1.7C118,142.9,119.1,143.6,120.6,143.6 M120.6,139.6c-0.6,0-1-0.4-1-0.8c0-0.4,0.4-0.8,1-0.8
		c0.6,0,1,0.4,1,0.8C121.6,139.3,121.1,139.6,120.6,139.6 M120.6,142.3c-0.7,0-1.1-0.4-1.1-0.8c0-0.6,0.4-0.8,1.1-0.8
		s1.1,0.3,1.1,0.8S121.3,142.3,120.6,142.3 M126.2,143.6c1.9,0,2.9-1.5,2.9-3.6c0-1.2-0.3-2.1-0.8-2.5c-0.6-0.6-1-0.7-1.9-0.7
		c-1.5,0-2.5,1-2.5,2.3c0,1.4,1,2.2,2.3,2.2c0.6,0,1-0.1,1.4-0.4c-0.1,0.8-0.6,1.5-1.4,1.5c-0.6,0-1-0.1-1.4-0.6L124,143
		C124.7,143.3,125.3,143.6,126.2,143.6 M126.5,140c-0.7,0-1.1-0.4-1.1-1s0.4-1,1.1-1s1.1,0.4,1.1,1C127.8,139.6,127.2,140,126.5,140
		 M132.4,143.6c1.9,0,2.9-1.5,2.9-3.6c0-1.2-0.3-2.1-0.8-2.5c-0.6-0.6-1-0.7-1.9-0.7c-1.5,0-2.5,1-2.5,2.3c0,1.4,1,2.2,2.3,2.2
		c0.6,0,1-0.1,1.4-0.4c-0.1,0.8-0.6,1.5-1.4,1.5c-0.6,0-1-0.1-1.4-0.6l-0.8,1.1C130.8,143.3,131.5,143.6,132.4,143.6 M132.7,140
		c-0.7,0-1.1-0.4-1.1-1s0.4-1,1.1-1s1.1,0.4,1.1,1S133.4,140,132.7,140"/>
	<path class="st1" d="M114.8,103.1c0,2.1-1.7,3.7-3.7,3.7c-2.1,0-3.7-1.7-3.7-3.7c0-2.1,1.7-3.7,3.7-3.7
		C113.2,99.3,114.8,101.1,114.8,103.1 M193.9,118.1c-0.3-0.1-0.4-0.1-0.7-0.3c-2.1-0.7-3.3-1.1-3.3-2.1v-0.1c0-0.8,1-1.4,2.1-1.4
		c1.4,0,2.8,0.4,4.8,1.5h0.1c0.1,0,0.1,0,0.3-0.1l2.2-3.9v-0.1c0-0.1,0-0.1-0.1-0.3c-2.3-1.2-4.5-1.9-7.2-1.9c-5,0-8.3,2.5-8.3,6.5
		v0.1c0,4,3.2,5.5,6.6,6.5c0.3,0.1,0.6,0.1,0.8,0.3c2.2,0.7,3,1.1,3,2.1v0.1c-0.1,0.8-0.8,1.2-2.2,1.2c-2.1,0-3.9-0.7-6.2-2.2h-0.1
		c-0.1,0-0.1,0-0.3,0.1l-2.3,3.7v0.1c0,0.1,0,0.1,0.1,0.3c2.8,1.9,5.4,3,8.4,3c5.5,0,8.7-2.3,8.7-6.6v-0.1
		C200.5,120.9,197.2,119.2,193.9,118.1 M134.1,124.6c0,4.3-3.3,6.7-8.7,6.7c-3.2,0-5.6-1.1-8.4-3c-0.1,0-0.1-0.1-0.1-0.3v-0.1
		l2.3-3.7c0-0.1,0.1-0.1,0.3-0.1h0.1c2.3,1.5,4,2.2,6.2,2.2c1.4,0,2.2-0.4,2.2-1.2v-0.1c0-1-1-1.5-3-2.1c-0.3-0.1-0.6-0.1-0.8-0.3
		c-3.6-1-6.6-2.5-6.6-6.5c0-4,3.2-6.5,8.3-6.5c2.5,0,4.8,0.7,7.2,1.9c0.1,0,0.1,0.1,0.1,0.3v0.1l-2.2,3.9c0,0.1-0.1,0.1-0.3,0.1
		h-0.1c-2.1-1-3.3-1.5-4.8-1.5c-1.2,0-2.1,0.6-2.1,1.4v0.1c0,1,1.2,1.4,3.3,2.1c0.3,0.1,0.4,0.1,0.7,0.3
		C130.8,119.1,134.1,120.7,134.1,124.6 M98.6,131.1h-5.5c-0.1,0-0.3-0.1-0.3-0.3v-20.1c0-0.1,0.1-0.3,0.3-0.3h5.2
		c0.1,0,0.3,0.1,0.3,0.3v2.5c1.4-1.9,3.4-3,5.5-3c0.3,0,0.6,0,0.8,0c0.1,0,0.3,0.1,0.3,0.3v5.4c0,0.1,0,0.1-0.1,0.3
		c0,0-0.1,0.1-0.3,0c-0.1,0-0.6,0-1,0c-1.8,0-3.9,1-4.7,3.7c-0.1,0.8-0.3,1.8-0.3,2.9v8C98.9,130.9,98.7,131.1,98.6,131.1
		 M83.6,130.8v-8c0-1.2,0.1-2.2,0.4-3c0.8-2.8,3-3.7,4.7-3.7h1.2c0,0,0.1-0.1,0.1-0.3v-5.4c0-0.1-0.1-0.3-0.3-0.3
		c-0.1,0-0.4,0-0.8,0c-2.2,0-4.3,1.1-5.5,3v-2.5c0-0.1-0.1-0.3-0.3-0.3h-5.2c-0.1,0-0.3,0.1-0.3,0.3v20.1c0,0.1,0.1,0.3,0.3,0.3h5.5
		C83.6,131.1,83.6,130.9,83.6,130.8 M49.2,131.1h-5.5c-0.1,0-0.3-0.1-0.3-0.3c0-6.3-0.6-13.5-0.7-15.7c-1.9,2.6-3.9,6.2-5.4,9.6
		c0,0.1-0.1,0.1-0.3,0.1h-3.2c-0.1,0-0.3,0-0.3-0.1c-1.5-3.4-3.3-7-5.4-9.6c-0.1,2.2-0.7,9.4-0.7,15.7c0,0.1-0.1,0.3-0.3,0.3h-5.5
		c-0.1,0-0.3-0.1-0.3-0.3c0-8.5,0.7-19.8,2.1-25.6c0-0.1,0.1-0.3,0.3-0.3h4.4c0.1,0,0.1,0,0.3,0.1c2.9,3.2,5.2,6.7,7,10.2
		c1.8-3.6,4.1-7,7-10.2c0,0,0.1-0.1,0.3-0.1h4.4c0.1,0,0.3,0.1,0.3,0.3c1.4,5.8,2.1,17.1,2.1,25.6C49.5,130.9,49.3,131.1,49.2,131.1
		 M180.7,130.8V118c0-5.2-2.5-8-7.3-8c-3.2,0-5.2,1.5-6.3,2.8v-2.1c0-0.1-0.1-0.3-0.3-0.3h-5.2c-0.1,0-0.3,0.1-0.3,0.3v20.1
		c0,0.1,0.1,0.3,0.3,0.3h5.5c0.1,0,0.3-0.1,0.3-0.3v-9.2c0-1,0.1-1.8,0.3-2.5c0.7-2.2,2.5-3.6,4.7-3.6c1.8,0,2.5,0.8,2.5,3.3v11.8
		c0,0.1,0.1,0.3,0.3,0.3h5.4C180.7,131.1,180.7,130.9,180.7,130.8 M147.4,115.2c-3,0-5.2,2.3-5.2,5.5c0,3.2,2.2,5.5,5.2,5.5
		c2.9,0,5.1-2.3,5.1-5.5C152.5,117.6,150.3,115.2,147.4,115.2 M147.4,131.5c-6.5,0-11.3-4.7-11.3-10.7c0-6.2,4.8-10.7,11.3-10.7
		c6.5,0,11.3,4.7,11.3,10.7C158.7,126.8,153.9,131.5,147.4,131.5 M114.1,130.8v-20.1c0-0.1-0.1-0.3-0.3-0.3h-5.5
		c-0.1,0-0.3,0.1-0.3,0.3v20.1c0,0.1,0.1,0.3,0.3,0.3h5.5C114,131.1,114.1,130.9,114.1,130.8 M63.5,115.2c-3,0-5.2,2.3-5.2,5.5
		c0,3.2,2.2,5.5,5.2,5.5c2.9,0,5.1-2.3,5.1-5.5C68.6,117.6,66.4,115.2,63.5,115.2 M63.5,131.5c-6.5,0-11.3-4.7-11.3-10.7
		c0-6.2,4.8-10.7,11.3-10.7s11.3,4.7,11.3,10.7C74.6,126.8,69.8,131.5,63.5,131.5"/>
	<path class="st6" d="M128.6,101.9c-5,1.8-9.4-1.5-9.4-1.5s1.2-5.4,6.2-7.2c5-1.8,9.4,1.5,9.4,1.5S133.5,100,128.6,101.9
		 M141.6,76.8c0,0-4.8-2.5-9.5,0.1c-4.5,2.6-4.8,8.1-4.8,8.1s4.8,2.5,9.5-0.1C141.4,82.3,141.6,76.8,141.6,76.8 M120.9,88.9
		c-2.2,4.8-7.6,5.5-7.6,5.5s-2.9-4.5-0.7-9.4c2.2-4.8,7.6-5.5,7.6-5.5S123.1,84.1,120.9,88.9 M87.7,94.7c0,0,1.2,5.4,6.2,7.2
		c5,1.8,9.4-1.5,9.4-1.5s-1.2-5.4-6.2-7.2C92,91.4,87.7,94.7,87.7,94.7 M90,77c4.5,2.6,4.8,8.1,4.8,8.1S90,87.6,85.4,85
		c-4.5-2.6-4.8-8.1-4.8-8.1S85.5,74.4,90,77 M96.1,68.2c0,0-1.1,5.4,2.6,9.1c3.7,3.7,9.1,2.6,9.1,2.6s1.1-5.4-2.6-9.1
		C101.5,67.1,96.1,68.2,96.1,68.2 M115.6,60.2c0,5.4-4.5,8.3-4.5,8.3s-4.5-2.9-4.5-8.3s4.5-8.3,4.5-8.3
		C111,51.9,115.6,54.8,115.6,60.2 M124.7,72c0,2.2-1.8,3.9-3.9,3.9c-2.2,0-3.9-1.8-3.9-3.9c0-2.1,1.8-3.9,3.9-3.9
		S124.7,69.8,124.7,72 M107.4,87.8c0,2.2-1.8,3.9-3.9,3.9c-2.1,0-3.9-1.8-3.9-3.9c0-2.2,1.8-3.9,3.9-3.9
		C105.6,84,107.4,85.8,107.4,87.8"/>
</g>
</svg>
