<svg version="1.1" id="Layer_1" xmlns:x="ns_extend;" xmlns:i="ns_ai;" xmlns:graph="ns_graphs;" xmlns="http://www.w3.org/2000/svg" xmlns:xlink="http://www.w3.org/1999/xlink" x="0px" y="0px" viewBox="0 0 48.8 48.8" style="enable-background:new 0 0 48.8 48.8;" xml:space="preserve">
 <style type="text/css">
  .st0{fill:#4D216D;}
 </style>
 <metadata>
  <sfw xmlns="ns_sfw;">
   <slices>
   </slices>
   <sliceSourceBounds bottomLeftOrigin="true" height="48.8" width="48.8" x="27.7" y="-179">
   </sliceSourceBounds>
  </sfw>
 </metadata>
 <path class="st0" d="M30.9,34.5c7.3,0,13.8-3.8,16.3-11.3c0.2-0.6,0.5-0.8,0.8-0.8c0.6,0,0.8,1,0.8,2.2c0,13.7-10.2,24.2-24.2,24.2
	C10.6,48.8,0,38.4,0,24.4C0,10.5,10.7,0,25.1,0c11.7,0,20.6,7,20.6,16.3c0,7.2-5.4,12.4-12.4,12.4c-6.5,0-11.5-4.4-11.5-10.6
	c0-2.5,0.8-4.9,2.3-6.7c0.7-0.9,1.5-1.4,1.9-1.4c0.3,0,0.4,0.3,0.3,0.7c-0.2,0.5-0.3,1.1-0.3,1.8c0,2.8,2.3,4.8,5.2,4.8
	c3.2,0,5.5-2.4,5.5-5.5c0-4-3.9-6.9-9.2-6.9c-7.8,0-13.3,6.6-13.3,14.4C14.1,28.5,21.8,34.5,30.9,34.5">
 </path>
</svg>