<?xml version="1.0" encoding="UTF-8"?>
<svg version="1.1" xmlns="http://www.w3.org/2000/svg" width="180" height="180">
<path d="M0 0 C59.4 0 118.8 0 180 0 C180 59.4 180 118.8 180 180 C120.6 180 61.2 180 0 180 C0 120.6 0 61.2 0 0 Z " fill="#154733" transform="translate(0,0)"/>
<path d="M0 0 C0.66 0 1.32 0 2 0 C3.93911686 4.77017757 5.87630046 9.54113773 7.8125 14.3125 C8.12580261 15.0845578 8.43910522 15.8566156 8.76190186 16.65206909 C13.80295326 29.07864009 18.8219664 41.51403705 23.83203125 53.953125 C24.13033907 54.69371344 24.42864689 55.43430187 24.73599434 56.19733238 C27.76908469 63.72748411 30.80143809 71.25793147 33.83177853 78.78919029 C34.98964402 81.66643476 36.14808314 84.54344806 37.30663109 87.42041779 C37.84733766 88.76353543 38.38778499 90.10675748 38.92794228 91.45009613 C41.9212106 98.89400331 44.95243889 106.31551533 48.11251831 113.69041443 C49 116 49 116 49 118 C50.951846 117.77788241 50.951846 117.77788241 53 117 C54.16275055 115.41250485 54.16275055 115.41250485 54.88568115 113.34910583 C55.20250351 112.56521484 55.51932587 111.78132385 55.8457489 110.97367859 C56.34314323 109.67464348 56.34314323 109.67464348 56.85058594 108.34936523 C57.21205215 107.44213715 57.57351837 106.53490906 57.94593811 105.60018921 C59.14024773 102.59195451 60.3122739 99.57554328 61.484375 96.55859375 C62.30685216 94.47440474 63.13070182 92.39075687 63.95587158 90.30763245 C66.12650065 84.81711815 68.27835214 79.31942869 70.42645264 73.82006836 C72.62072385 68.21220528 74.83256734 62.61128568 77.04296875 57.00976562 C81.37926366 46.01325705 85.69576464 35.00909301 90 24 C90.33 24 90.66 24 91 24 C91 60.3 91 96.6 91 134 C31.6 134 -27.8 134 -89 134 C-89 97.7 -89 61.4 -89 24 C-87.41969066 26.37046401 -86.43600623 28.17681958 -85.41970825 30.77078247 C-85.11983002 31.53073517 -84.81995178 32.29068787 -84.51098633 33.07366943 C-84.18783447 33.90287903 -83.86468262 34.73208862 -83.53173828 35.58642578 C-83.18674286 36.46307892 -82.84174744 37.33973206 -82.48629761 38.24295044 C-81.73742182 40.14618538 -80.98996228 42.04997805 -80.24374771 43.95425797 C-78.65827489 47.99558518 -77.06070704 52.03209185 -75.46386528 56.0689373 C-72.48996918 63.58770741 -69.52152922 71.10854528 -66.57275391 78.63720703 C-64.52189474 83.87199308 -62.45609473 89.10065827 -60.38018417 94.32555771 C-59.59072442 96.32091167 -58.80693115 98.31851696 -58.02884293 100.31833267 C-56.9423911 103.10884859 -55.83710923 105.89117046 -54.72705078 108.67236328 C-54.40794739 109.50562134 -54.08884399 110.33887939 -53.7600708 111.1973877 C-52.77616902 113.7314679 -52.77616902 113.7314679 -51 117 C-48.95287964 117.76743789 -48.95287964 117.76743789 -47 118 C-46.61005859 116.77877441 -46.22011719 115.55754883 -45.81835938 114.29931641 C-43.77119038 108.16631691 -41.33713252 102.19994861 -38.90625 96.2109375 C-38.40112511 94.96080943 -37.89624342 93.71058308 -37.3915863 92.46026611 C-36.04285093 89.12060136 -34.69081084 85.78228398 -33.33811569 82.4442215 C-31.93380442 78.97712132 -30.53260261 75.508765 -29.13110352 72.04052734 C-26.85743253 66.41502633 -24.58201746 60.79023406 -22.30517578 55.16601562 C-19.24077289 47.5962801 -16.18023621 40.02498819 -13.12109375 32.453125 C-8.74986233 21.63441834 -4.37602579 10.81676823 0 0 Z " fill="#154733" transform="translate(89,46)"/>
<path d="M0 0 C6.6 0 13.2 0 20 0 C28.33481399 19.97002271 36.46072686 40.01636931 44.44091797 60.13061523 C45.97699902 64.00193984 47.51825724 67.8711826 49.0606575 71.7399931 C50.26226985 74.75607981 51.46077065 77.77339537 52.65834808 80.7910862 C53.22663113 82.22169762 53.79600061 83.65187799 54.36649323 85.08160973 C55.1515572 87.05012137 55.93230041 89.02029148 56.71191406 90.9909668 C57.1553717 92.10706833 57.59882935 93.22316986 58.0557251 94.37309265 C59 97 59 97 59 99 C59.66 99 60.32 99 61 99 C61.09260605 98.36278519 61.1852121 97.72557037 61.28062439 97.06904602 C62.27345816 92.83335539 63.88946253 88.92621851 65.51000977 84.89526367 C65.8710379 83.98745148 66.23206604 83.07963928 66.60403442 82.14431763 C67.79578238 79.15057228 68.99355879 76.15927821 70.19140625 73.16796875 C71.01989864 71.09018042 71.8480135 69.01224152 72.67576599 66.93415833 C74.85355919 61.46973146 77.0364747 56.00736502 79.22045898 50.54541016 C81.44889483 44.96965854 83.67248606 39.39197586 85.89648438 33.81445312 C90.25958046 22.87440542 94.62808976 11.93652805 99 1 C99.33 1 99.66 1 100 1 C106.67399945 38.48262394 95.82394959 68.39075839 81.8125 102.6875 C81.16409842 104.28579462 81.16409842 104.28579462 80.50259781 105.91637802 C77.5867504 113.09808304 74.6083855 120.25093802 71.58203125 127.38671875 C71.18544815 128.33321793 70.78886505 129.2797171 70.38026428 130.25489807 C69.26270336 132.90454996 68.11870678 135.54087322 66.96411133 138.17456055 C66.63612203 138.95899127 66.30813272 139.74342199 65.97020435 140.55162334 C65.00593567 142.69902039 65.00593567 142.69902039 63 146 C60.25224304 146.98908997 60.25224304 146.98908997 58 147 C49.15040469 126.17309379 40.62924166 105.22797352 32.26846313 84.20059204 C29.52241261 77.29888933 26.75383906 70.40638837 23.98046875 63.515625 C22.72887677 60.40197181 21.47758878 57.28819665 20.22640991 54.17437744 C19.41130597 52.14768184 18.59508947 50.12143332 17.77774048 48.09564209 C16.64036359 45.27594563 15.50722141 42.45458224 14.375 39.6328125 C14.0320842 38.78583801 13.6891684 37.93886353 13.33586121 37.06622314 C11 31.22776781 11 31.22776781 11 29 C10.34 29 9.68 29 9 29 C8.8457959 29.5667041 8.6915918 30.1334082 8.53271484 30.71728516 C6.60272574 37.49456294 4.11150226 43.95034677 1.41836548 50.45776367 C-0.01583447 53.92363194 -1.43403208 57.39607014 -2.85546875 60.8671875 C-3.17238174 61.63975891 -3.48929474 62.41233032 -3.81581116 63.20831299 C-6.62731772 70.06899115 -9.40466498 76.94323434 -12.17578125 83.8203125 C-12.62852417 84.94359955 -13.08126709 86.0668866 -13.54772949 87.22421265 C-15.36972922 91.7455472 -17.19132867 96.26704159 -19.01116943 100.78924561 C-25.23029568 116.23974605 -31.55806944 131.64100933 -38 147 C-40.25224304 146.98908997 -40.25224304 146.98908997 -43 146 C-44.59974109 143.36745659 -45.78576691 140.99273041 -46.96411133 138.17456055 C-47.32561877 137.34994481 -47.68712622 136.52532907 -48.05958843 135.67572498 C-49.25681992 132.92201864 -50.42164474 130.15613802 -51.58203125 127.38671875 C-51.98641922 126.43322037 -52.39080719 125.47972198 -52.80744934 124.49732971 C-55.87569051 117.25411778 -58.85540447 109.97667077 -61.8125 102.6875 C-62.24500942 101.6288184 -62.67751884 100.5701368 -63.12313461 99.47937393 C-76.67734858 66.24278867 -86.45276116 37.24010187 -80 1 C-78.41813459 3.37279812 -77.40109737 5.23973864 -76.35482788 7.83325195 C-76.04075485 8.60714264 -75.72668182 9.38103333 -75.40309143 10.17837524 C-75.06430466 11.02314423 -74.72551788 11.86791321 -74.37646484 12.73828125 C-74.01529068 13.63122894 -73.65411652 14.52417664 -73.28199768 15.44418335 C-72.08809709 18.39887145 -70.89929336 21.35557789 -69.7109375 24.3125 C-68.88439604 26.36374828 -68.05770335 28.41493564 -67.23086548 30.46606445 C-65.49857763 34.76582765 -63.76895149 39.0666502 -62.04101562 43.36816406 C-59.8229365 48.88888392 -57.59703538 54.40641172 -55.3689785 59.92311096 C-53.65995788 64.15775645 -51.95571393 68.39431177 -50.25285721 72.63143921 C-49.43392635 74.66711706 -48.61334903 76.70213334 -47.79111862 78.73648071 C-46.64403822 81.57626452 -45.50355177 84.41860847 -44.36474609 87.26171875 C-44.02191086 88.10648773 -43.67907562 88.95125671 -43.32585144 89.82162476 C-43.01741806 90.59551544 -42.70898468 91.36940613 -42.39120483 92.16674805 C-41.9858252 93.17441475 -41.9858252 93.17441475 -41.57225609 94.20243835 C-41 96 -41 96 -41 99 C-40.34 99 -39.68 99 -39 99 C-38.82447916 98.38358139 -38.64895832 97.76716278 -38.46811867 97.13206482 C-36.75498241 91.25216608 -34.76847293 85.58103017 -32.46240234 79.91015625 C-32.12219559 79.06334793 -31.78198883 78.21653961 -31.43147278 77.34407043 C-30.32050667 74.58182871 -29.20332285 71.8221505 -28.0859375 69.0625 C-27.30755063 67.13116782 -26.52953118 65.19968752 -25.75186157 63.26806641 C-23.71440647 58.21045292 -21.67153044 53.15504593 -19.62762451 48.10003662 C-17.95472133 43.95988042 -16.28576568 39.81813852 -14.61699486 35.67631531 C-12.62882108 30.74200074 -10.63886771 25.80840472 -8.6484375 20.875 C-8.26809734 19.93214142 -7.88775719 18.98928284 -7.49589157 18.01785278 C-6.42449157 15.36307486 -5.35187909 12.70879057 -4.27880859 10.0546875 C-3.95984116 9.26407425 -3.64087372 8.473461 -3.3122406 7.65888977 C-1.11519915 2.2303983 -1.11519915 2.2303983 0 0 Z " fill="#C3D500" transform="translate(80,17)"/>
</svg>
